# xmcd
#
# Track frame offsets: 
#        150
#        11355
#        26205
#        46268
#        62956
#        75489
#        91689
#
# Disc length: 1388 seconds
#
# Revision: 0
# Processed by: cddbd v1.5.2PL0 Copyright (c) Steve Scherf et al.
# Submitted via: ExactAudioCopyFreeDBPlugin 1.0
#
DISCID=48056a07
DTITLE=Janis Joplin - This Is Janis Joplin
DYEAR=1965
DGENRE=Blues Rock
TTITLE0=Apple Of My Eye
TTITLE1=Zip Train (219 Train)
TTITLE2=Cod'ine
TTITLE3=Down And Out
TTITLE4=Turtle Blues
TTITLE5=I Ain't Got A Worry
TTITLE6=Brownsville
EXTD=
EXTT0=
EXTT1=
EXTT2=
EXTT3=
EXTT4=
EXTT5=
EXTT6=
PLAYORDER=
